HIERARCHY
ROOT Hips
{
	OFFSET -218.811600 91.910019 -434.508209
	CHANNELS 6 Xposition Yposition Zposition Zrotation Yrotation Xrotation 
	JOINT LeftUpLeg
	{
		OFFSET 0.103459 1.857842 10.548500
		CHANNELS 3 Zrotation Yrotation Xrotation
		JOINT LeftLeg
		{
			OFFSET 43.500008 -0.000042 -0.000011
			CHANNELS 3 Zrotation Yrotation Xrotation
			JOINT LeftFoot
			{
				OFFSET 42.372200 0.000000 0.000010
				CHANNELS 3 Zrotation Yrotation Xrotation
				JOINT LeftToe
				{
					OFFSET 17.300018 0.000008 -0.000006
					CHANNELS 3 Zrotation Yrotation Xrotation
					End Site
					{
						OFFSET 0.000000 0.000000 0.000000
					}
				}
			}
		}
	}
	JOINT RightUpLeg
	{
		OFFSET 0.103459 1.857820 -10.548510
		CHANNELS 3 Zrotation Yrotation Xrotation
		JOINT RightLeg
		{
			OFFSET 43.500038 -0.000004 -0.000004
			CHANNELS 3 Zrotation Yrotation Xrotation
			JOINT RightFoot
			{
				OFFSET 42.372261 -0.000019 0.000015
				CHANNELS 3 Zrotation Yrotation Xrotation
				JOINT RightToe
				{
					OFFSET 17.300003 -0.000001 0.000006
					CHANNELS 3 Zrotation Yrotation Xrotation
					End Site
					{
						OFFSET 0.000000 0.000000 0.000000
					}
				}
			}
		}
	}
	JOINT Spine
	{
		OFFSET 6.901967 -2.603730 -0.000004
		CHANNELS 3 Zrotation Yrotation Xrotation
		JOINT Spine1
		{
			OFFSET 12.588097 -0.000009 0.000008
			CHANNELS 3 Zrotation Yrotation Xrotation
			JOINT Spine2
			{
				OFFSET 12.343205 0.000003 -0.000002
				CHANNELS 3 Zrotation Yrotation Xrotation
				JOINT Neck
				{
					OFFSET 25.832899 -0.000006 0.000003
					CHANNELS 3 Zrotation Yrotation Xrotation
					JOINT Head
					{
						OFFSET 11.766611 0.000013 0.000001
						CHANNELS 3 Zrotation Yrotation Xrotation
						End Site
						{
							OFFSET 0.000000 0.000000 0.000000
						}
					}
				}
				JOINT LeftShoulder
				{
					OFFSET 19.745903 -1.480350 6.000102
					CHANNELS 3 Zrotation Yrotation Xrotation
					JOINT LeftArm
					{
						OFFSET 11.284125 -0.000002 -0.000024
						CHANNELS 3 Zrotation Yrotation Xrotation
						JOINT LeftForeArm
						{
							OFFSET 33.000050 0.000009 0.000033
							CHANNELS 3 Zrotation Yrotation Xrotation
							JOINT LeftHand
							{
								OFFSET 25.200012 0.000010 -0.000003
								CHANNELS 3 Zrotation Yrotation Xrotation
								End Site
								{
									OFFSET 0.000000 0.000000 0.000000
								}
							}
						}
					}
				}
				JOINT RightShoulder
				{
					OFFSET 19.746105 -1.480362 -6.000072
					CHANNELS 3 Zrotation Yrotation Xrotation
					JOINT RightArm
					{
						OFFSET 11.284140 -0.000003 -0.000004
						CHANNELS 3 Zrotation Yrotation Xrotation
						JOINT RightForeArm
						{
							OFFSET 33.000099 0.000013 0.000007
							CHANNELS 3 Zrotation Yrotation Xrotation
							JOINT RightHand
							{
								OFFSET 25.199776 0.000126 0.000428
								CHANNELS 3 Zrotation Yrotation Xrotation
								End Site
								{
									OFFSET 0.000000 0.000000 0.000000
								}
							}
						}
					}
				}
			}
		}
	}
}
MOTION
Frames: 13
Frame Time: 0.033333
-218.811600 91.910019 -434.508209 91.030548 9.344746 85.875948 -169.042537 0.958606 178.649089 -8.013022 -0.906959 -9.531246 73.772825 5.664502 -4.000301 21.454551 0.003080 0.000001 -170.026262 4.664506 178.378996 -11.730697 5.016329 9.010566 78.871029 -5.870754 2.409865 21.454558 -0.003103 -0.000017 7.566633 -0.675600 0.199757 5.123651 -1.326143 0.367172 4.805451 -1.323825 0.375300 4.754315 0.992585 -1.643126 -14.367120 5.757518 -3.518227 -87.905641 -86.429268 -94.164478 -9.761717 7.797773 -12.439365 -25.105511 -16.918443 1.251175 12.880664 -1.696449 33.385671 -123.630017 82.451838 58.538744 -9.236430 -10.923641 9.689907 -22.368190 16.449802 -1.214059 8.070060 5.289228 -8.828650 
-218.816498 91.909340 -434.507599 91.033663 9.348250 85.883133 -169.042537 0.956802 178.652368 -8.013025 -0.907860 -9.531252 73.772812 5.664491 -4.001138 21.454555 0.003094 -0.000001 -170.026262 4.664504 178.416043 -11.741827 5.016332 8.994171 78.877859 -5.870753 2.398745 21.454560 -0.003106 -0.000016 7.566633 -0.675592 0.199771 5.123643 -1.326137 0.367166 4.805463 -1.323832 0.375310 4.761310 1.004184 -1.643127 -14.367115 5.743051 -3.510067 -87.895594 -86.429378 -94.174491 -9.751243 7.801992 -12.444327 -25.109702 -16.922241 1.251174 12.886539 -1.696450 33.410967 -123.637120 82.446592 58.531921 -9.230341 -10.910870 9.702805 -22.373138 16.449799 -1.214060 8.067842 5.287950 -8.828668 
-218.831299 91.908279 -434.507599 91.044864 9.357544 85.910638 -169.042537 0.949403 178.689551 -8.013016 -0.916591 -9.531248 73.765374 5.664498 -4.009507 21.454553 0.003098 0.000001 -170.026262 4.664509 178.454128 -11.764369 5.016328 8.991857 78.894245 -5.873131 2.382605 21.454557 -0.003108 -0.000017 7.566637 -0.675604 0.199767 5.123647 -1.332163 0.367160 4.805450 -1.329807 0.375309 4.777766 1.041357 -1.637249 -14.367113 5.697011 -3.483292 -87.932573 -86.429323 -94.137772 -9.732608 7.812878 -12.464623 -25.119581 -16.932655 1.251190 12.919723 -1.697167 33.491918 -123.664523 82.428478 58.505502 -9.213259 -10.868111 9.744058 -22.388809 16.447048 -1.214061 8.055587 5.242055 -8.839738 
-218.844193 91.907738 -434.510895 91.056599 9.363115 85.945063 -169.044682 0.944507 178.730177 -8.013023 -0.922099 -9.531248 73.757621 5.664493 -4.014241 21.454553 0.003096 0.000001 -170.026249 4.664507 178.463294 -11.783238 5.016322 9.007894 78.909715 -5.883982 2.384459 21.454557 -0.003100 -0.000015 7.566640 -0.675604 0.199767 5.123646 -1.338724 0.367171 4.805461 -1.336357 0.375308 4.794128 1.072806 -1.627415 -14.370416 5.665255 -3.458525 -87.972686 -86.429214 -94.097303 -9.716532 7.825090 -12.492512 -25.126902 -16.938840 1.251181 12.955755 -1.708066 33.561419 -123.678989 82.415091 58.491732 -9.200114 -10.836811 9.750004 -22.391042 16.464963 -1.214060 8.035421 5.172090 -8.816050 
-218.854996 91.907890 -434.517090 91.068736 9.363342 85.982465 -169.051540 0.943241 178.769137 -8.013019 -0.923011 -9.531237 73.750231 5.662815 -4.019314 21.454551 0.003090 -0.000003 -170.032560 4.664504 178.452311 -11.798435 5.016327 9.034774 78.924871 -5.898157 2.403736 21.454560 -0.003113 -0.000016 7.566640 -0.675600 0.199757 5.123657 -1.346053 0.367185 4.805455 -1.343678 0.375292 4.814715 1.098490 -1.615683 -14.387916 5.641284 -3.436069 -88.114242 -86.429268 -93.955256 -9.702596 7.829935 -12.514882 -25.127028 -16.939771 1.251179 12.990251 -1.702012 33.550835 -123.682814 82.409190 58.488208 -9.183244 -10.813351 9.727480 -22.387338 16.480908 -1.214048 8.019641 5.093798 -8.734535 
-218.864105 91.909012 -434.524994 91.080668 9.358424 86.019266 -169.063165 0.941699 178.803520 -8.010980 -0.921787 -9.531252 73.745095 5.661105 -4.032899 21.454557 0.003094 -0.000000 -170.042450 4.664503 178.423433 -11.805863 5.016323 9.069868 78.939044 -5.913993 2.440004 21.454557 -0.003102 -0.000018 7.566634 -0.675602 0.199767 5.123641 -1.353770 0.369801 4.805465 -1.351373 0.377977 4.841582 1.106430 -1.607354 -14.431665 5.633508 -3.426568 -88.236366 -86.429214 -93.832476 -9.695864 7.842340 -12.527457 -25.124168 -16.937370 1.251187 13.005628 -1.668154 33.414371 -123.660602 82.405467 58.510850 -9.168492 -10.796168 9.683325 -22.375894 16.465440 -1.214067 8.024613 5.083688 -8.539308 
-218.872498 91.912277 -434.532410 91.085524 9.352497 86.052768 -169.071525 0.935713 178.832248 -8.002449 -0.919435 -9.531242 73.735772 5.658664 -4.046858 21.454553 0.003084 -0.000000 -170.067066 4.664509 178.397998 -11.809811 5.016326 9.075336 78.954794 -5.893384 2.540968 21.454558 -0.003104 -0.000016 7.567338 -0.675603 0.201488 5.123637 -1.359365 0.372723 4.805464 -1.356950 0.380936 4.866197 1.097418 -1.600921 -14.490601 5.642104 -3.427676 -88.160325 -86.429378 -93.908981 -9.694080 7.886537 -12.546093 -25.121933 -16.926092 1.251187 13.015090 -1.677849 33.241872 -123.626082 82.413459 58.545137 -9.150944 -10.797940 9.657680 -22.368834 16.441654 -1.214056 8.055666 5.114748 -8.330276 
-218.880493 91.915192 -434.539307 91.088830 9.346338 86.079488 -169.080431 0.929902 178.852328 -7.992868 -0.915206 -9.528663 73.722583 5.654443 -4.054022 21.454551 0.003088 0.000002 -170.073281 4.658998 178.377029 -11.794973 5.016335 9.090300 78.960211 -5.887837 2.606727 21.454553 -0.003100 -0.000018 7.568267 -0.678143 0.203310 5.123642 -1.364437 0.375806 4.805454 -1.361999 0.384051 4.881069 1.074527 -1.596499 -14.551324 5.661709 -3.436480 -88.213218 -86.429159 -93.856102 -9.693273 7.925328 -12.566023 -25.122153 -16.888855 1.251182 13.091617 -1.743594 33.072985 -123.579419 82.435814 58.590886 -9.131064 -10.815422 9.657181 -22.362562 16.417275 -1.214050 8.121524 5.136503 -8.099485 
-218.888596 91.916763 -434.545990 91.092737 9.338919 86.101494 -169.093641 0.926306 178.849665 -7.985641 -0.907705 -9.513445 73.710705 5.641956 -4.058515 21.454551 0.003087 -0.000001 -170.063842 4.649505 178.353725 -11.764078 5.016327 9.124413 78.946127 -5.915071 2.592615 21.454560 -0.003114 -0.000018 7.569297 -0.680575 0.205104 5.123636 -1.369517 0.379196 4.805465 -1.367065 0.387465 4.886297 1.035160 -1.594555 -14.602811 5.693926 -3.453700 -88.457001 -86.429268 -93.612449 -9.690469 7.951895 -12.579599 -25.106273 -16.855855 1.251173 13.194705 -1.829248 32.849867 -123.502743 82.465710 58.666182 -9.113661 -10.842209 9.672427 -22.352899 16.391009 -1.214051 8.176747 5.186627 -7.728308 
-218.897705 91.917480 -434.551392 91.094636 9.329196 86.120134 -169.106905 0.917691 178.853927 -7.981064 -0.905505 -9.506671 73.705814 5.637464 -4.057033 21.454550 0.003072 -0.000001 -170.061192 4.637093 178.356142 -11.735051 5.016322 9.136841 78.924748 -5.932005 2.558437 21.454558 -0.003104 -0.000018 7.570417 -0.682852 0.207230 5.123644 -1.372753 0.383225 4.805453 -1.370401 0.391523 4.891149 0.986409 -1.592111 -14.648644 5.737898 -3.476362 -88.802445 -86.429378 -93.266377 -9.677627 7.972813 -12.581959 -25.082331 -16.844044 1.251177 13.304755 -1.906151 32.570969 -123.411505 82.494547 58.756279 -9.094404 -10.866933 9.653039 -22.344023 16.366089 -1.214062 8.211371 5.358877 -7.141805 
-218.907898 91.916847 -434.556305 91.090073 9.317754 86.134805 -169.119568 0.901704 178.867942 -7.978475 -0.910182 -9.508259 73.713553 5.641097 -4.049740 21.454551 0.003097 0.000000 -170.066670 4.619796 178.381906 -11.716362 5.011184 9.130390 78.906573 -5.935152 2.526186 21.454557 -0.003102 -0.000017 7.571569 -0.684982 0.209957 5.125161 -1.375754 0.389699 4.806959 -1.373691 0.398006 4.892138 0.954105 -1.589767 -14.692055 5.776111 -3.493643 -89.084839 -86.422042 -92.984044 -9.671542 7.993603 -12.588390 -25.049801 -16.842099 1.251183 13.375068 -1.990286 32.257320 -123.359691 82.507237 58.807758 -9.083560 -10.877571 9.622849 -22.333223 16.339944 -1.212929 8.222239 5.498398 -6.785198 
-218.918793 91.915077 -434.560791 91.082157 9.305576 86.146703 -169.133543 0.880493 178.880359 -7.976870 -0.917894 -9.509876 73.731325 5.645079 -4.041483 21.454553 0.003081 -0.000000 -170.064826 4.596103 178.399910 -11.701302 5.001370 9.138578 78.899914 -5.945212 2.507100 21.454560 -0.003106 -0.000016 7.572711 -0.686559 0.214166 5.127034 -1.379932 0.397985 4.808840 -1.377363 0.406314 4.873051 0.948515 -1.589622 -14.713886 5.803333 -3.503822 -89.169950 -86.402719 -92.900606 -9.680595 8.020752 -12.594118 -25.010471 -16.846341 1.251178 13.412039 -2.082414 31.942162 -123.369486 82.498310 58.798421 -9.088737 -10.870238 9.591469 -22.312760 16.313099 -1.211732 8.234468 5.581756 -6.567003 
-218.930496 91.916702 -434.563690 91.073469 9.293525 86.156600 -169.147996 0.856703 178.882873 -7.976345 -0.925627 -9.503198 73.730519 5.641884 -4.036621 21.454553 0.003081 0.000001 -170.083158 4.577507 178.421466 -11.700013 4.989295 9.117942 78.908042 -5.915836 2.567532 21.454562 -0.003102 -0.000016 7.573817 -0.687773 0.219367 5.129034 -1.384792 0.408267 4.810834 -1.382167 0.416634 4.852458 0.962745 -1.594552 -14.717019 5.803564 -3.507054 -89.104394 -86.385343 -92.967713 -9.689912 8.056354 -12.593604 -24.972457 -16.849431 1.251178 13.434659 -2.186636 31.662322 -123.425302 82.483939 58.743062 -9.097196 -10.854282 9.560426 -22.275501 16.288126 -1.210536 8.230188 5.620098 -6.430972 
